<svg id="Layer_1" data-name="Layer 1" xmlns="http://www.w3.org/2000/svg" viewBox="0 0 459.96 545.64"><defs><style>.cls-1{fill:#B53707;}</style></defs><path class="cls-1" d="M830.74,547.51c-.32.84-.65,1.71-1,2.58a16,16,0,0,1-6.71,8.47c-2.62,1.61-5.43,2.92-8.16,4.34a2.92,2.92,0,0,1-.83.23L801.48,565a27.23,27.23,0,0,1-9.9.06,17.39,17.39,0,0,1-11.21-8,34.8,34.8,0,0,1-4.9-14.25c-.29-2.07-.48-4.15-.74-6.47L640.57,537.6c-.14.45-.3.87-.41,1.31-.27,1.07-.51,2.15-.78,3.22a18.9,18.9,0,0,1-10,12.59c-1.81.93-3.64,1.82-5.48,2.69a4.7,4.7,0,0,1-1.33.37c-3.68.57-7.35,1.19-11,1.66a61.15,61.15,0,0,1-7.64.62,16.55,16.55,0,0,1-14.21-7.55,32,32,0,0,1-2.76-5,2,2,0,0,0-1.93-1.38c-3.47-.32-7-.63-10.42-1.12-5.76-.81-11.51-1.74-17.26-2.64q-4.74-.74-9.48-1.56a5.63,5.63,0,0,1-1.79-.59A116.72,116.72,0,0,1,518.79,519a55.24,55.24,0,0,1-11.32-17.52,179.19,179.19,0,0,1-7.37-22,46.94,46.94,0,0,1-1.19-15.26c.36-5,.61-10,.91-15,.61-9.94,1-19.9,1.89-29.83a130,130,0,0,1,6.59-32.26,69.09,69.09,0,0,1,11.6-21.38c5.75-7,12.77-12,21.58-14.4a55.75,55.75,0,0,1,13-1.58c3.32-.1,6.64,0,10.07,0a2.51,2.51,0,0,0,0-.68c-3.34-11.14-1.51-21.68,3.81-31.74a147.17,147.17,0,0,1,13.72-20.86c4.24-5.49,8.65-10.84,13-16.24a25.19,25.19,0,0,0,5.26-10.52,16.41,16.41,0,0,0,.19-4.85,21.82,21.82,0,0,1,2-10.87,57.08,57.08,0,0,1,8.16-13,101.33,101.33,0,0,1,26.55-23.27c4.3-2.59,8.77-4.89,13.76-5.82,9.84-1.82,18.08,1,24.32,9,3.38,4.35,5.33,9.39,6.77,14.65.29,1.06.54,2.14.84,3.29,2.92,0,5.82,0,8.72,0l27.45-.39c6.17-.09,12.35-.21,18.52-.24a2.37,2.37,0,0,0,2.12-1.17,101.14,101.14,0,0,1,27.1-25.23,52.05,52.05,0,0,1,14-6.56,24,24,0,0,1,26.67,9.8,44.55,44.55,0,0,1,6,14c2.22,8.64,2.79,17.46,2.84,26.34a61.28,61.28,0,0,0,.38,7.67,15.11,15.11,0,0,0,1.62,4.94,34.42,34.42,0,0,0,3.92,6c7.49,9,15.16,17.86,21.86,27.49,3.32,4.78,6.49,9.68,9.42,14.7a42.82,42.82,0,0,1,6.1,23,37.69,37.69,0,0,1-1.42,9.13c-.11.38-.21.77-.37,1.38H860a86.15,86.15,0,0,1,16.21.93c9.57,1.67,17.32,6.55,23.69,13.76,5.76,6.51,9.65,14.1,12.57,22.22a121.7,121.7,0,0,1,5.68,23.73c1.39,9.59,2,19.23,2.5,28.89.4,8.32.71,16.66,1.4,25a50.78,50.78,0,0,1-2.55,20.13c-1.86,5.7-3.76,11.39-6,17a57.21,57.21,0,0,1-13.91,20.32,132,132,0,0,1-21.32,16.64,22.14,22.14,0,0,1-8.92,3.18c-7.09,1-14.16,2.16-21.22,3.31-4.65.76-9.28,1.63-13.92,2.41C833.14,547.37,832,547.4,830.74,547.51Zm-212-242.36c-.38.44-.7.85-1,1.23-1.9,2.13-3.87,4.21-5.7,6.4-3.36,4-6.79,8-9.92,12.2-4.62,6.19-5.55,13.17-3.71,20.59A32.61,32.61,0,0,0,604.14,358a21.75,21.75,0,0,1,4.6,12.21,67.87,67.87,0,0,1-.64,13.59c-.78,6.18-1.76,12.33-2.66,18.49-.33,2.24-.67,4.47-1,6.73a3.91,3.91,0,0,1-.62-.05c-2.15-.54-4.3-1-6.43-1.63-12.47-3.39-25-6.64-37.79-8.4a29.76,29.76,0,0,0-9.23-.05,20.22,20.22,0,0,0-10.52,5.85,46,46,0,0,0-8.17,10.85A73.61,73.61,0,0,0,523,441.26a43,43,0,0,0,0,14.44,55.28,55.28,0,0,0,14.77,28.23,26.3,26.3,0,0,0,7.53,5.62,12.28,12.28,0,0,0,6.59,1.28c2.55-.22,5.12-.38,7.68-.36q11.28.06,22.55.31a62.29,62.29,0,0,1,7,.5,59.86,59.86,0,0,0,9.54.93,2.1,2.1,0,0,1,.54.16,3.83,3.83,0,0,1,.08.67c-.21,3.95-.51,7.9-.63,11.86-.23,7.34-.44,14.68-.48,22a17.73,17.73,0,0,0,3,9.91,15.5,15.5,0,0,0,8,6.5,7.89,7.89,0,0,0,9.06-2.21,24.47,24.47,0,0,0,2.07-2.59,33,33,0,0,0,5.15-12.14,13.69,13.69,0,0,0,.13-3.45c-.17-3.66-.45-7.32-.59-11-.1-2.44,0-4.89-.08-7.33,0-3.09-.28-6.17-.17-9.25a3.76,3.76,0,0,1,3.69-3.94c4.35-.54,8.71-.93,12.91.85a7.07,7.07,0,0,0,1.34.39c4.12.76,8.24,1.53,12.36,2.25a138.27,138.27,0,0,0,15.48,1.43c5.35.34,10.68.82,16,1.27,3.08.25,6.15.79,9.22.78,19.23,0,38.46,0,57.68.61a100.76,100.76,0,0,0,17.8-.74,81.33,81.33,0,0,1,17.77-.7l1.41.13c0,1.92.1,3.72,0,5.5-.59,9-1.11,17.92-1,26.9a29.6,29.6,0,0,0,.8,6.91c1.41,5.35,4.53,9.43,9.8,11.53,3.59,1.43,6.86.85,9.52-2.13a15.66,15.66,0,0,0,1.35-1.6c4.55-6.51,6.94-13.55,6.14-21.67A193.15,193.15,0,0,1,816,498a4.37,4.37,0,0,1,2.86-4.34,30.61,30.61,0,0,1,10.45-2.61c5.47-.23,10.95-.34,16.42-.52a225.66,225.66,0,0,1,23.41.28,12.36,12.36,0,0,0,6-1,26,26,0,0,0,7.64-5.45,56,56,0,0,0,13.08-20.84,39.5,39.5,0,0,0,2.65-15.75,78.51,78.51,0,0,0-1.33-10.91,68.89,68.89,0,0,0-10.47-25.52,38.16,38.16,0,0,0-8.13-8.84,18.67,18.67,0,0,0-13.43-3.87,145.42,145.42,0,0,0-22.52,3.86c-8.14,2-16.22,4.16-24.34,6.24-.53.14-1.08.22-1.71.35-.34-2.46-.66-4.7-1-6.95-1.08-7.9-2.25-15.79-3.2-23.71a39.86,39.86,0,0,1,.17-10.63c.64-4.31,2.15-8.08,5.93-10.63a7.85,7.85,0,0,0,2.42-2.93,35.56,35.56,0,0,0,3.41-8.95c1.25-5.54,1.16-11-1.37-16.21a39.9,39.9,0,0,0-5.2-7.85q-9.48-11.58-19.91-22.29a7.06,7.06,0,0,0-.74-.59c-.22.06-.34.07-.44.11a60.75,60.75,0,0,1-34.39,4.07c-11-1.76-19.16-7.73-24.25-17.74a52.69,52.69,0,0,1-4.84-15.07c-.49-2.85-.82-5.73-1.23-8.6l-46.9.77c0,.93-.06,1.74,0,2.54a60.62,60.62,0,0,1-.18,14.12,36.19,36.19,0,0,1-5.42,15c-4.22,6.43-10.19,10.62-17.31,13.25a63.85,63.85,0,0,1-22.48,3.55A41.27,41.27,0,0,1,618.72,305.15ZM774,235.44c-1.23,0-2.45-.06-3.67,0a38.1,38.1,0,0,0-8.94,1.38,9,9,0,0,0-6.47,6.91,14.28,14.28,0,0,0-.36,1.7,70.45,70.45,0,0,0,.7,22.07A26.64,26.64,0,0,0,759.67,278c3.83,5.23,9.94,7.52,16.7,6,4.32-1,7.68-3.56,10.47-6.88,6.26-7.47,8.42-16.16,7.34-25.75a25.92,25.92,0,0,0-1.88-7.59,13.34,13.34,0,0,0-9.84-8.08A24.77,24.77,0,0,0,774,235.44Zm-125.16,0c-1.22,0-2.45-.06-3.67,0a38.1,38.1,0,0,0-8.94,1.38,9,9,0,0,0-6.48,6.9,14.28,14.28,0,0,0-.4,2.05,71.3,71.3,0,0,0,.67,21.38,26.58,26.58,0,0,0,4.62,11,15.27,15.27,0,0,0,11.75,6.29,17.05,17.05,0,0,0,13.5-5.39c6.7-6.63,9.65-14.79,9.4-24.16a29.76,29.76,0,0,0-2.11-11.07,13.34,13.34,0,0,0-9.83-8.09A24.83,24.83,0,0,0,648.8,235.44Z" transform="translate(-498.76 -204.36)"/><path class="cls-1" d="M710.07,335.09c10.66.13,21.33.12,32,.42a156.87,156.87,0,0,1,29,3.1,39.7,39.7,0,0,1,9.76,3.18,29.13,29.13,0,0,1,4.66,3,8.86,8.86,0,0,1,2.07,2.55c1.79,3.09,1.46,5.69-1,8.31a21.1,21.1,0,0,1-5.75,4.21,73.87,73.87,0,0,1-15.8,6,181.9,181.9,0,0,1-26.58,5,261.31,261.31,0,0,1-37.52,1.6A207.9,207.9,0,0,1,672.72,370a81.1,81.1,0,0,1-19.33-5.22,30.67,30.67,0,0,1-8.15-5c-4.1-3.58-5.16-8.15-4.3-13.3a8,8,0,0,1,4.35-5.81,27.78,27.78,0,0,1,8.78-2.78,124.08,124.08,0,0,1,17.73-1.74c12.05-.36,24.11-.57,36.17-.84.7,0,1.4,0,2.1,0Z" transform="translate(-498.76 -204.36)"/><path class="cls-1" d="M774.66,241.08c1.93.19,4,.24,6,.63A9.45,9.45,0,0,1,788,248c3.1,8.3,1.82,19.31-5.65,26.48-3.49,3.36-7.62,4.81-12.47,3.66a11.51,11.51,0,0,1-7-4.93,21.82,21.82,0,0,1-3.43-9.43,52.28,52.28,0,0,1-.13-14.78c.56-4.09,2.46-6.15,6.52-6.88C768.73,241.6,771.64,241.42,774.66,241.08Z" transform="translate(-498.76 -204.36)"/><path class="cls-1" d="M633.67,255.69c.16-2.21.23-4.42.5-6.61.51-4.07,2.45-6.18,6.44-7a45.13,45.13,0,0,1,13.37-.69c4.36.44,7.64,2.71,9,7,2.93,9.34,1.56,18-5.1,25.39a13,13,0,0,1-10.29,4.72,11.55,11.55,0,0,1-9.64-5.07,22.49,22.49,0,0,1-3.72-10.58C633.91,260.47,633.84,258.08,633.67,255.69Z" transform="translate(-498.76 -204.36)"/><text x="-498.76" y="-204.36"/></svg>
