<svg id="Layer_1" data-name="Layer 1" xmlns="http://www.w3.org/2000/svg" viewBox="0 0 974.57 768">
  <defs>
    <style>
    .inside {
      fill: #F3F3DE;
    }
    .outside {
      fill: #1E3C1E;
    }
</style>
  </defs>
  <path class="inside" d="M0,0H974.57V768H0ZM589.49,555c2.63,15.86,3.62,30.14,7.73,43.46,2.35,7.64,8.39,16,15.16,20,13.21,7.8,47.93,1,58.24-10.92,6.28-7.28,12.91-9.28,21.66-9.39,65.22-.86,104.29-46.8,113.76-90.7,4.21-19.52,4.6-40.3,3.78-60.38-1.51-36.93-2.94-74.24-20.51-108.23-11.8-22.81-28.85-38.7-55.84-40.94-6.9-.57-13.78-1.24-21.15-1.91,5.9-22.49-.15-41.88-12.89-59.3-14-19.17-29.21-37.52-43.15-56.76A47.36,47.36,0,0,1,648,160.07c-2.29-15.24-2.13-30.84-4.46-46.06C637.67,75.6,606,61,573.54,82.11a211.15,211.15,0,0,0-37.32,31.21c-7.41,7.79-14.38,11.63-25,11.41-18.07-.36-36.21-.28-54.23,1-11.07.76-16.71-2.47-20.47-13.3-9.59-27.7-32.79-36.45-59.14-23.22-6.67,3.34-13.55,6.73-19.31,11.37C337.71,117,316.42,134,313.36,161.82c-1.56,14.19-5.93,25.08-14.57,35.44-6.21,7.44-11.65,15.53-17.79,23-18,22-31.74,45.44-24.56,76.11-3.93.18-6.53.42-9.14.41-48.45-.25-72.38,29.82-78.12,63-7.17,41.5-12.33,83.91-12.4,125.93-.07,45.94,39.73,107.4,103.28,110.57,13.38.67,27.11,2,36.29,15,2.51,3.57,9.28,5.88,14.07,5.84,36.5-.27,63.46-6.82,60.34-51.41-.09-1.25.47-2.54,1-5C444.8,580.08,517.39,577.58,589.49,555Z"/>
  <path class="outside" d="M589.49,555c-72.1,22.54-144.69,25-217.77,5.74-.49,2.46-1.05,3.75-1,5,3.12,44.59-23.84,51.14-60.34,51.41-4.79,0-11.56-2.27-14.07-5.84-9.18-13.07-22.91-14.37-36.29-15-63.55-3.17-103.35-64.63-103.28-110.57.07-42,5.23-84.43,12.4-125.93,5.74-33.18,29.67-63.25,78.12-63,2.61,0,5.21-.23,9.14-.41-7.18-30.67,6.53-54.09,24.56-76.11,6.14-7.5,11.58-15.59,17.79-23,8.64-10.36,13-21.25,14.57-35.44,3.06-27.8,24.35-44.86,44.71-61.29,5.76-4.64,12.64-8,19.31-11.37,26.35-13.23,49.55-4.48,59.14,23.22,3.76,10.83,9.4,14.06,20.47,13.3,18-1.23,36.16-1.31,54.23-1,10.62.22,17.59-3.62,25-11.41a211.15,211.15,0,0,1,37.32-31.21C606,61,637.67,75.6,643.53,114c2.33,15.22,2.17,30.82,4.46,46.06A47.36,47.36,0,0,0,656.28,180c13.94,19.24,29.11,37.59,43.15,56.76,12.74,17.42,18.79,36.81,12.89,59.3,7.37.67,14.25,1.34,21.15,1.91,27,2.24,44,18.13,55.84,40.94,17.57,34,19,71.3,20.51,108.23.82,20.08.43,40.86-3.78,60.38-9.47,43.9-48.54,89.84-113.76,90.7-8.75.11-15.38,2.11-21.66,9.39-10.31,12-45,18.72-58.24,10.92-6.77-4-12.81-12.38-15.16-20C593.11,585.18,592.12,570.9,589.49,555ZM304.57,513.56c0,15.28-.65,29.38.25,43.37.54,8.51,1.79,17.76,5.7,25.09,7.27,13.63,22.42,13.83,28.48-.27,4.81-11.2,6.59-24.73,6-37-2.13-42.09,10.54-41.38,44.18-46.23a9.67,9.67,0,0,1,1.32,0c54.26-.22,108.55-1.6,162.75,0,17.82.53,35.5,8.45,53.07,13.59,8.56,2.51,11.9,8.53,10.77,18.08a338,338,0,0,0-2,39.62c0,12.11,9.6,24.59,19.2,25.49,12.56,1.18,16.48-8.8,19.79-17.76,2.36-6.41,3-13.68,3.22-20.6a158.6,158.6,0,0,0-1.33-26.41c-1.74-12.56,4.19-16.52,15.58-16.41,16.76.16,33.53-.17,50.29-.19,14.13,0,25-5,33.57-17.12,23.47-32.95,23.95-65.84,2.82-99.86-12.73-20.49-25.08-26.39-48.68-21.56-20.55,4.2-41,8.78-63.44,13.61-1.8-21.19-4.42-40.85-4.66-60.53-.09-7.52,3.68-16.35,8.45-22.42,12.53-15.95,14.29-31.75,2.19-48-6.83-9.17-15.24-17.17-22.08-26.34-7.49-10-15.35-11.77-28.14-9.17-50.26,10.24-74.46-5.44-83.07-46.52-.63-3-1-6.35-2.68-8.78s-4.66-5.52-7.13-5.57c-21-.44-42.09-.25-64.25-.25,0,6.86.26,12.5,0,18.11-1.24,22.93-10.6,40.53-32.68,50-17.63,7.57-36.3,10.31-54.21,4.65-14.74-4.66-23.25-.46-30.76,11.08-2.15,3.31-5,6.15-7.42,9.3-13.77,17.93-13.92,31.77-2.57,51,4.31,7.31,8.26,16.28,8.18,24.44-.21,19.57-2.91,39.12-4.69,59.71-23.76-5.41-45.12-10.42-66.57-15.1-13.23-2.89-26.06-1.42-35.39,9.19-21.59,24.57-33.42,60.17-20.11,93.21,10.87,27,26.86,37.09,55.95,36.68C271,513.37,287.7,513.56,304.57,513.56ZM582.12,119c-12.54,2.75-26.31.11-30.65,16.55-6.35,24,.2,33,24.95,33.43,6.48.1,13.69,0,19.31-2.71,6.15-2.91,14.89-8.58,15.27-13.58.64-8.67-2.27-19.34-7.56-26.14C599.54,121.52,589.45,121.32,582.12,119Zm-188.29,5.46c-11.27.2-23.78-1.64-27.89,13.29-6.78,24.59,1.83,34.32,27.14,30.83,4.77-.66,9.67-1.1,14.23-2.52,12.46-3.9,17-13.2,14.81-29.75-1.53-11.49-11.05-10.68-19.09-11.78C400,124.09,396.9,124.44,393.83,124.44ZM370.09,180.5c4.66,11.71,11.41,18.66,23.66,18.22,11.94-.44,20.22-6.18,25.32-18.22ZM557,180.36c6.16,11.15,13.3,16.89,24.16,15.44,9.1-1.22,17.44-4.37,20.76-15.44Z"/><path class="inside" d="M304.57,513.56c-16.87,0-33.53-.19-50.19,0-29.09.41-45.08-9.69-55.95-36.68-13.31-33-1.48-68.64,20.11-93.21,9.33-10.61,22.16-12.08,35.39-9.19,21.45,4.68,42.81,9.69,66.57,15.1,1.78-20.59,4.48-40.14,4.69-59.71.08-8.16-3.87-17.13-8.18-24.44-11.35-19.22-11.2-33.06,2.57-51,2.41-3.15,5.27-6,7.42-9.3,7.51-11.54,16-15.74,30.76-11.08,17.91,5.66,36.58,2.92,54.21-4.65,22.08-9.47,31.44-27.07,32.68-50,.3-5.61,0-11.25,0-18.11,22.16,0,43.21-.19,64.25.25,2.47,0,5.49,3.14,7.13,5.57s2,5.77,2.68,8.78c8.61,41.08,32.81,56.76,83.07,46.52,12.79-2.6,20.65-.88,28.14,9.17C636.8,240.8,645.21,248.8,652,258c12.1,16.27,10.34,32.07-2.19,48-4.77,6.07-8.54,14.9-8.45,22.42.24,19.68,2.86,39.34,4.66,60.53,22.42-4.83,42.89-9.41,63.44-13.61,23.6-4.83,36,1.07,48.68,21.56,21.13,34,20.65,66.91-2.82,99.86-8.61,12.09-19.44,17.11-33.57,17.12-16.76,0-33.53.35-50.29.19-11.39-.11-17.32,3.85-15.58,16.41a158.6,158.6,0,0,1,1.33,26.41c-.19,6.92-.86,14.19-3.22,20.6-3.31,9-7.23,18.94-19.79,17.76-9.6-.9-19.21-13.38-19.2-25.49a338,338,0,0,1,2-39.62c1.13-9.55-2.21-15.57-10.77-18.08C588.71,506.91,571,499,553.21,498.46c-54.2-1.59-108.49-.21-162.75,0a9.67,9.67,0,0,0-1.32,0c-33.64,4.85-46.31,4.14-44.18,46.23.63,12.3-1.15,25.83-6,37-6.06,14.1-21.21,13.9-28.48.27-3.91-7.33-5.16-16.58-5.7-25.09C303.92,542.94,304.57,528.84,304.57,513.56ZM503.09,272c-33.09,2.14-63.84,4-94.58,6.17-8.83.62-16.6,3.62-18.84,13.51-2.29,10.12,2.59,17.6,10.94,21.89,9.68,5,20,11.14,30.34,11.87,34.57,2.43,69.43,4.94,103.92,2.95,23.21-1.33,46.24-9.37,68.79-16.24,6.21-1.89,10.43-10.32,15.56-15.75-5.76-4.92-11.39-10-17.36-14.64-1.57-1.23-4.18-1.34-6.35-1.53C564,277.39,532.51,274.62,503.09,272Zm73.19,146c-1.15,13.9,5.76,27.46,14.09,27.68,7.61.2,15.47-10.57,15.91-22.64.37-9.92-1.92-18.77-14-19.77C582.18,402.44,576.88,407.87,576.28,418ZM460.62,431.39c5.09,9.74,9,17.7,13.56,25.31.4.68,6.45-.46,6.68-1.48,2-8.6,4.8-17.53,4-26-.46-4.79-7.31-9-11.29-13.42Zm-85.18-6.87c9.34,6.77,14.61,13.51,20.64,14.27,8.92,1.12,14.09-6.6,14.06-15.33,0-10.72-9.56-12.39-16.84-11.88C388.48,411.92,384.07,418,375.44,424.52Zm153.25-5.76c2.43,11.51-.22,23.46,12.53,24,3.51.15,11.27-10.5,10.35-14.72-1.6-7.35-8.45-13.55-13.1-20.23Z"/>
  <path class="inside" d="M582.12,119c7.33,2.34,17.42,2.54,21.32,7.55,5.29,6.8,8.2,17.47,7.56,26.14-.38,5-9.12,10.67-15.27,13.58-5.62,2.67-12.83,2.81-19.31,2.71-24.75-.4-31.3-9.39-24.95-33.43C555.81,119.09,569.58,121.73,582.12,119Z"/>
  <path class="inside" d="M393.83,124.44c3.07,0,6.18-.35,9.2.07,8,1.1,17.56.29,19.09,11.78,2.21,16.55-2.35,25.85-14.81,29.75-4.56,1.42-9.46,1.86-14.23,2.52-25.31,3.49-33.92-6.24-27.14-30.83C370.05,122.8,382.56,124.64,393.83,124.44Z"/>
  <path class="inside" d="M370.09,180.5h49c-5.1,12-13.38,17.78-25.32,18.22C381.5,199.16,374.75,192.21,370.09,180.5Z"/>
  <path class="outside" d="M557,180.36h44.92c-3.32,11.07-11.66,14.22-20.76,15.44C570.25,197.25,563.11,191.51,557,180.36Z"/>
  <path class="outside" d="M503.09,272c29.42,2.61,60.92,5.38,92.42,8.23,2.17.19,4.78.3,6.35,1.53,6,4.64,11.6,9.72,17.36,14.64-5.13,5.43-9.35,13.86-15.56,15.75-22.55,6.87-45.58,14.91-68.79,16.24-34.49,2-69.35-.52-103.92-2.95-10.37-.73-20.66-6.91-30.34-11.87-8.35-4.29-13.23-11.77-10.94-21.89,2.24-9.89,10-12.89,18.84-13.51C439.25,276,470,274.15,503.09,272Z"/>
  <path class="outside" d="M576.28,418c.6-10.13,5.9-15.56,16-14.73,12.06,1,14.35,9.85,14,19.77-.44,12.07-8.3,22.84-15.91,22.64C582,445.46,575.13,431.9,576.28,418Z"/>
  <path class="outside" d="M460.62,431.39l12.93-15.62c4,4.45,10.83,8.63,11.29,13.42.82,8.5-2,17.43-4,26-.23,1-6.28,2.16-6.68,1.48C469.65,449.09,465.71,441.13,460.62,431.39Z"/>
  <path class="outside" d="M375.44,424.52c8.63-6.56,13-12.6,17.86-12.94,7.28-.51,16.8,1.16,16.84,11.88,0,8.73-5.14,16.45-14.06,15.33C390.05,438,384.78,431.29,375.44,424.52Z"/>
  <path class="outside" d="M528.69,418.76l9.78-10.93c4.65,6.68,11.5,12.88,13.1,20.23.92,4.22-6.84,14.87-10.35,14.72C528.47,442.22,531.12,430.27,528.69,418.76Z"/>
</svg>
